inDegrees=no
num_controls=7
num_derivatives=13
num_iterations=112
num_multipliers=7
num_parameters=0
num_slacks=7
num_states=26
objective=0.497120
objective_accelerations=0.032137
objective_balance=0.003282
objective_effort=0.034959
objective_height=0.421267
objective_ligament=0.005475
solver_duration=1297.289302
status=Solve_Succeeded
success=true
DataType=double
version=3
OpenSimVersion=4.5
endheader
time	/jointset/ground_pelvis/pelvis_tilt/value	/jointset/ground_pelvis/pelvis_tx/value	/jointset/ground_pelvis/pelvis_ty/value	/jointset/hip_r/hip_flexion_r/value	/jointset/hip_r/hip_adduction_r/value	/jointset/hip_r/hip_rotation_r/value	/jointset/back/lumbar_extension/value	/jointset/patellofemoral_r/patellar_flexion_r/value	/jointset/knee_r/knee_flexion_r/value	/jointset/knee_r/knee_adduction_r/value	/jointset/knee_r/knee_rotation_r/value	/jointset/ankle_r/ankle_angle_r/value	/jointset/subtalar_r/subtalar_angle_r/value	/jointset/ground_pelvis/pelvis_tilt/speed	/jointset/ground_pelvis/pelvis_tx/speed	/jointset/ground_pelvis/pelvis_ty/speed	/jointset/hip_r/hip_flexion_r/speed	/jointset/hip_r/hip_adduction_r/speed	/jointset/hip_r/hip_rotation_r/speed	/jointset/back/lumbar_extension/speed	/jointset/patellofemoral_r/patellar_flexion_r/speed	/jointset/knee_r/knee_flexion_r/speed	/jointset/knee_r/knee_adduction_r/speed	/jointset/knee_r/knee_rotation_r/speed	/jointset/ankle_r/ankle_angle_r/speed	/jointset/subtalar_r/subtalar_angle_r/speed	/forceset/tau_hip_flexion_r	/forceset/tau_hip_adduction_r	/forceset/tau_hip_rotation_r	/forceset/tau_knee_flexion_r	/forceset/tau_ankle_angle_r	/forceset/tau_subtalar_angle_r	/forceset/tau_lumbar_extension	lambda_cid13_p0	lambda_cid14_p0	lambda_cid14_p1	lambda_cid14_p2	lambda_cid14_p3	lambda_cid14_p4	lambda_cid14_p5	/jointset/ground_pelvis/pelvis_tilt/accel	/jointset/ground_pelvis/pelvis_tx/accel	/jointset/ground_pelvis/pelvis_ty/accel	/jointset/hip_r/hip_flexion_r/accel	/jointset/hip_r/hip_adduction_r/accel	/jointset/hip_r/hip_rotation_r/accel	/jointset/back/lumbar_extension/accel	/jointset/patellofemoral_r/patellar_flexion_r/accel	/jointset/knee_r/knee_flexion_r/accel	/jointset/knee_r/knee_adduction_r/accel	/jointset/knee_r/knee_rotation_r/accel	/jointset/ankle_r/ankle_angle_r/accel	/jointset/subtalar_r/subtalar_angle_r/accel	gamma_cid13_p0	gamma_cid14_p0	gamma_cid14_p1	gamma_cid14_p2	gamma_cid14_p3	gamma_cid14_p4	gamma_cid14_p5
0.5	-0.09545518496100777	0.05201860633966848	0.8638451422980781	0.6898867294719845	-0.2300085937566329	-0.1332742424793693	-0.3178529279384901	0.6874665876608985	0.6874665876609126	0.0412289691195645	0.1743051166939437	0.2640132259086478	0.05691116419270455	-0.2579544982749881	-0.08872123995759307	-0.3243970538036756	1.394841038309792	-0.006904853244373454	0.2529840083130942	-0.5996287743259113	1.657441830280434	1.657441830280426	-0.2811454928425648	-0.0005153051251849997	0.6101257402889981	0.1653219223666675	-0.07378957729082372	-0.01872198854100749	0.00826493249474965	-0.3410425092460141	0.06366121655265553	-0.01045307220054095	0.1344702936568014	-32.03832951206672	-21.81968184072438	-4.463211774695282	-3.279814390169614	3.450936249915384	-671.2380883432184	59.92095762891307	0.0585746644979013	0.2791355835732201	-0.3377466272710949	-0.8705326479577238	-0.06059155941992421	-0.5841227664019435	1.311821405187213	-1.15485741615029	-1.154857416150309	0.3851518952785654	0.02687282049744782	-0.4770238168594664	-0.07365593521317182	-1.068743742941898e-07	-1.571313355742521e-07	5.074544656967558e-07	-1.246309176408581e-06	4.331197322827778e-08	-2.161669302112806e-07	8.442165031506163e-07
0.51	-0.09803134269272397	0.05114547977565233	0.860585022289451	0.7037893168217028	-0.2300814757869688	-0.130771913353927	-0.3237828936530155	0.7039806869129124	0.7039806869129203	0.03843957273795461	0.1743008114757038	0.2700894781622453	0.05855922924686525	-0.2572386901812309	-0.08589302256382356	-0.327551779942471	1.385474433574229	-0.007679572221721681	0.2475472603023051	-0.5862843768727686	1.645136838828618	1.64513683882861	-0.2766548565131298	-0.0003902131140796568	0.6050376789874531	0.164249135654621	-0.07903598080663428	-0.01693638327771015	0.008934542444627333	-0.3438784340708259	0.05944471419481858	-0.009873397111797097	0.1393113838003692	-31.0952073449226	-23.31660200208779	-4.591794177257876	-3.124261327263844	4.02866687572607	-674.4525791198506	59.70279956961412	0.08382512134356598	0.2863323542667479	-0.2931043039192734	-1.000041081652299	-0.08728459067642011	-0.5138143739231082	1.357747671338231	-1.304476909534283	-1.30447690953424	0.4928578673375217	-0.001560958191522417	-0.5377598731101439	-0.1304572007347344	-8.940334632925443e-08	-1.117232826094264e-07	5.768315749651322e-07	-9.015108507174872e-07	7.675583676043086e-09	-1.654157370732256e-07	7.343725163054514e-07
0.52	-0.1005991940955968	0.05030096889297148	0.857295601280089	0.7175921747850059	-0.2301623795118351	-0.1283220244196936	-0.3295770156418175	0.7203645048704407	0.7203645048704421	0.03569745039275133	0.1742963795076534	0.2761122372855658	0.06019529300159859	-0.2562932325063165	-0.08299810369053538	-0.3302572539506773	1.374895161026797	-0.008509192150437012	0.2424959700712875	-0.5724600291812034	1.63138557138332	1.631385571383312	-0.2716906855612319	-0.0005406550873179336	0.5994271142335833	0.1629216624812006	-0.08428238432247	-0.01515077801441287	0.009604152394505822	-0.3467143588956377	0.0552282118369816	-0.009293722023053367	0.1441524739439369	-30.14387151433669	-24.81797549765911	-4.71852124688828	-2.972014398434948	4.592335833452871	-677.7425327260844	59.54856529427648	0.1045045807293057	0.2924758794769534	-0.2478962011532919	-1.113066210331558	-0.07157174969346967	-0.5070312104476395	1.407811452871703	-1.444112614846718	-1.44411261484672	0.4798588197712181	-0.02823397637123757	-0.581524507324425	-0.1245932274879648	-6.50215400801558e-08	-2.140855176688999e-08	8.293691140853685e-07	-2.31287866667873e-07	-7.778361039889189e-08	-5.620785898055791e-08	5.913445276291963e-07
0.53	-0.1031565452864245	0.04948571197481821	0.8539813857554329	0.7312835241289272	-0.2302512578295627	-0.1259235436309956	-0.3352304579042016	0.7366038798611193	0.7366038798611272	0.03300452651644742	0.1742907417565269	0.2820765871579029	0.06181772561851277	-0.2551363456901187	-0.08004357994529158	-0.3325077107748262	1.363176896551227	-0.009269867144243013	0.2372130153517971	-0.5581571699212546	1.616263002600079	1.616263002600072	-0.2668585179490724	-0.0005925842081425858	0.5933665339687519	0.1615320336497929	-0.08943294821347038	-0.01346020477960249	0.01028003008746003	-0.3496651097446061	0.05118012370190649	-0.008811379745605931	0.1489123435254175	-29.18683358075234	-26.27335798850194	-4.886195155670194	-2.805554569731739	5.133761359768052	-681.071281877247	59.36113907469397	0.1273807190157169	0.2983710870198577	-0.2018991614172263	-1.230875691803364	-0.07872559073551912	-0.5370525715202877	1.452211168709539	-1.580282189930324	-1.580282189930243	0.4903727935831284	0.005512499517166453	-0.629799523986208	-0.1509063681449969	-3.967203156640875e-08	6.349357231800275e-08	1.048375125448645e-06	3.961877489035827e-07	-1.562081753097883e-07	4.179574660505896e-08	4.700671842857546e-07
